<svg preserveAspectRatio="xMidYMid meet" xmlns="http://www.w3.org/2000/svg" width="100%" height="100%" viewBox="0 0 512 512" version="1.1">
	<rect x="0" y="0" width="100%" height="100%" fill="#ffffff" />
	<path d="M 48 10.793 L 48 21.585 52.458 22.777 C 60.605 24.957, 63 21.725, 63 8.550 L 63 0 55.500 0 L 48 0 48 10.793 M 72 2.878 C 72 4.460, 72.745 6.373, 73.655 7.128 C 74.565 7.882, 75.876 9.855, 76.568 11.511 C 78.686 16.578, 85.857 24, 88.635 24 C 91.823 24, 96.584 21.525, 97.379 19.455 C 97.720 18.565, 98 13.823, 98 8.918 L 98 0 85 0 L 72 0 72 2.878 M 102 6.918 C 102 15.727, 102.210 16.201, 108.238 21 C 113.741 25.382, 117.530 26.061, 122.596 23.575 C 124.928 22.431, 126.566 22.365, 130.908 23.239 C 138.805 24.829, 140 23.073, 140 9.889 L 140 0 131.500 0 C 126.825 0, 123 0.340, 123 0.757 C 123 1.173, 123.397 2.898, 123.883 4.591 C 125.048 8.654, 123.648 11, 120.057 11 C 116.140 11, 115.412 8.449, 118.510 5.579 C 123.391 1.055, 122.065 0, 111.500 0 L 102 0 102 6.918 M 144 9.389 C 144 19.866, 144.963 21.948, 150.669 23.807 C 156.656 25.758, 159 21.433, 159 8.435 L 159 0 151.500 0 L 144 0 144 9.389 M 163.405 8.939 C 163.504 17.398, 163.667 18.043, 166.442 20.939 C 171.769 26.499, 177 23.363, 177 14.609 C 177 12.689, 177.454 10.837, 178.010 10.494 C 179.473 9.589, 184.234 13.651, 185.645 17.008 C 186.883 19.952, 193.318 24, 196.760 24 C 202.080 24, 202.897 13.230, 198 7.653 C 196.350 5.774, 195 3.283, 195 2.118 C 195 0.050, 194.628 0, 179.150 0 L 163.301 0 163.405 8.939 M 148.663 29.302 C 146.010 30.436, 142.334 34.686, 138.247 41.346 C 137.286 42.911, 135.262 45.785, 133.750 47.733 C 132.238 49.681, 131 51.810, 131 52.463 C 131 53.117, 129.898 54.686, 128.552 55.951 C 127.205 57.216, 125.816 59.560, 125.465 61.159 C 125.114 62.759, 123.775 64.757, 122.490 65.598 C 121.001 66.574, 119.917 68.532, 119.501 70.996 C 119.121 73.243, 117.622 76.145, 115.924 77.922 C 114.316 79.605, 113 82.032, 113 83.317 C 113 84.601, 111.913 86.672, 110.585 87.921 C 109.256 89.169, 107.878 91.384, 107.521 92.845 C 107.165 94.305, 105.719 97.183, 104.308 99.240 C 102.143 102.395, 101.764 104.001, 101.883 109.506 C 101.993 114.559, 101.514 116.987, 99.762 120.266 L 97.500 124.500 97.500 267.500 C 97.500 422.061, 97.261 415.306, 102.818 418.080 C 105.019 419.179, 132.619 419.446, 256.807 419.571 L 408.114 419.724 411.307 417.578 C 415.709 414.618, 415.903 411.779, 411.898 408.927 L 408.685 406.639 264.092 406.248 C 184.567 406.032, 118.163 405.776, 116.529 405.678 C 114.577 405.561, 113.181 404.742, 112.456 403.288 C 111.672 401.716, 111.287 360.981, 111.124 262.284 C 110.998 185.948, 110.543 120.906, 110.115 117.747 C 108.869 108.567, 109.817 101.350, 112.499 99.593 C 113.834 98.718, 115.038 96.611, 115.446 94.435 C 115.863 92.213, 117.254 89.816, 118.959 88.381 C 120.512 87.075, 122.051 84.935, 122.379 83.626 C 122.708 82.317, 124.107 80.505, 125.488 79.600 C 126.870 78.694, 128 77.456, 128 76.848 C 128 76.240, 129.575 73.999, 131.500 71.868 C 133.425 69.738, 135 67.346, 135 66.554 C 135 65.762, 135.899 64.484, 136.997 63.715 C 138.095 62.945, 139.468 60.957, 140.047 59.296 C 140.626 57.635, 142.202 55.773, 143.550 55.159 C 144.897 54.545, 146 53.413, 146 52.644 C 146 51.874, 146.749 50.627, 147.664 49.872 C 161.800 38.215, 162.521 23.381, 148.663 29.302 M 396.586 176.469 C 393.884 177.793, 388.815 179.182, 385.321 179.556 C 381.402 179.976, 378.025 180.979, 376.502 182.177 C 374.946 183.401, 370.902 184.575, 365.547 185.357 C 359.486 186.242, 356.407 187.204, 354.779 188.722 C 353.077 190.308, 350.600 191.026, 345 191.553 C 336.560 192.348, 335.239 192.878, 329.250 197.877 C 323.659 202.543, 323.336 207.053, 328.250 211.853 C 330.038 213.598, 332.298 215.808, 333.273 216.763 C 334.248 217.718, 336.160 219.492, 337.523 220.705 C 338.885 221.917, 340 223.365, 340 223.922 C 340 224.480, 330.887 234.188, 319.750 245.495 C 296.476 269.125, 289.240 276.787, 287.872 279.250 C 287.338 280.212, 286.554 281, 286.130 281 C 285.706 281, 279.766 275.566, 272.929 268.923 C 266.093 262.281, 257.860 254.519, 254.634 251.673 C 251.408 248.828, 246.858 244.813, 244.522 242.750 C 240.105 238.849, 237.027 238.163, 233.456 240.285 C 230.952 241.773, 217.188 255.037, 199.649 272.865 C 192.417 280.216, 182.953 289.666, 178.619 293.865 C 143.840 327.556, 126.091 346.012, 125.133 349.481 C 123.904 353.931, 124.377 355.395, 127.502 356.819 C 128.818 357.418, 130.645 359.054, 131.562 360.454 C 132.479 361.855, 133.842 363, 134.589 363 C 135.337 363, 136.601 364.262, 137.399 365.805 C 138.197 367.348, 139.970 369.121, 141.338 369.744 C 142.707 370.368, 144.107 371.761, 144.449 372.840 C 146.034 377.834, 153.936 376.415, 159.699 370.101 C 162.008 367.570, 164.573 364.825, 165.399 364 C 166.224 363.175, 167.350 362.050, 167.900 361.500 C 168.450 360.950, 169.822 359.600, 170.948 358.500 C 184.686 345.084, 219.656 309.996, 227.125 302.133 C 232.419 296.560, 237.256 292, 237.874 292 C 238.492 292, 242.958 295.938, 247.798 300.750 C 258.223 311.116, 273.931 325.626, 279.388 329.932 C 284.203 333.732, 288.126 333.927, 290.821 330.500 C 291.903 329.125, 293.173 328, 293.644 327.999 C 294.568 327.999, 305.776 316.917, 311.182 310.658 C 313.007 308.545, 321.362 299.770, 329.749 291.158 C 338.137 282.546, 345.787 274.680, 346.749 273.678 C 348.819 271.524, 357.474 262.935, 359.020 261.500 C 359.613 260.950, 362.466 258.086, 365.360 255.136 L 370.622 249.771 374.298 253.636 C 387.716 267.742, 386.770 267, 391.335 267 C 397.160 267, 398.866 265.456, 399.623 259.500 C 399.972 256.750, 401.144 253.026, 402.227 251.224 C 403.459 249.173, 404.710 244.034, 405.569 237.490 C 406.345 231.586, 407.802 225.348, 408.916 223.164 C 410.095 220.853, 411.155 216.116, 411.547 211.398 C 411.909 207.054, 412.993 201.925, 413.956 200 C 417.676 192.565, 418.676 178.867, 415.762 175.250 C 413.941 172.990, 402.161 173.739, 396.586 176.469 M 393.286 191.621 C 390.419 192.984, 385.302 194.546, 381.915 195.091 C 378.529 195.636, 374.125 196.909, 372.129 197.919 C 370.133 198.929, 366.925 200.076, 365 200.467 C 358.980 201.690, 346 206.289, 346 207.199 C 346 208.391, 352.949 215.261, 355.458 216.548 C 357.072 217.376, 357.489 218.542, 357.449 222.112 C 357.400 226.441, 357.007 227.028, 347.949 236.314 C 342.752 241.642, 334 250.708, 328.500 256.461 C 323 262.215, 317.928 266.940, 317.229 266.961 C 316.529 266.982, 315.467 268.075, 314.868 269.390 C 314.269 270.704, 312.704 272.269, 311.390 272.868 C 310.075 273.467, 309 274.411, 309 274.966 C 309 275.520, 304.725 280.249, 299.500 285.474 C 294.275 290.699, 290 295.400, 290 295.920 C 290 297.455, 286.684 298.056, 283.404 297.116 C 280.474 296.276, 276.451 292.641, 250.350 267.250 C 243.989 261.063, 238.354 256, 237.826 256 C 237.299 256, 219.910 273.016, 199.184 293.812 C 178.458 314.609, 160.771 332.047, 159.881 332.562 C 158.990 333.078, 155.278 336.764, 151.631 340.754 C 144.619 348.425, 143.569 351.395, 146.829 354.345 C 150.775 357.917, 152.938 356.639, 167.035 342.409 C 174.441 334.933, 190.860 318.396, 203.521 305.659 C 216.183 292.921, 227.319 281.281, 228.267 279.791 C 230.270 276.646, 236.515 274.411, 240.503 275.411 C 242.019 275.792, 248.699 281.456, 255.844 288.419 C 262.805 295.202, 269.850 301.952, 271.500 303.419 C 273.150 304.885, 276.917 308.316, 279.871 311.042 C 282.825 313.769, 285.588 316, 286.011 316 C 286.433 316, 290.886 311.837, 295.906 306.750 C 323.827 278.453, 329 273.079, 329 272.365 C 329 271.933, 337.796 262.899, 348.547 252.290 C 371.645 229.496, 370.445 229.986, 379.743 239.562 C 388.059 248.127, 389.043 247.895, 390.630 236.997 C 391.311 232.323, 392.572 226.828, 393.432 224.786 C 394.293 222.743, 395.457 217.831, 396.018 213.872 C 396.580 209.912, 397.941 205.213, 399.043 203.430 C 401.593 199.304, 402.247 189.680, 400 189.358 C 399.175 189.240, 396.154 190.258, 393.286 191.621 M 181.702 459.306 C 180.491 460.574, 177.471 462.370, 174.990 463.297 C 171.259 464.691, 169.709 466.149, 166.013 471.741 L 161.546 478.500 161.168 490.831 C 160.866 500.668, 161.131 504.055, 162.478 507.581 L 164.165 512 173.444 512 L 182.723 512 182.253 509.544 C 181.995 508.193, 180.707 506.383, 179.392 505.521 C 177.082 504.007, 177 503.530, 177 491.512 C 177 479.627, 177.101 479.017, 179.250 477.887 C 180.488 477.236, 182.772 475.645, 184.327 474.351 C 188.706 470.709, 192.344 471.255, 197.287 476.297 C 202.596 481.711, 207.131 483.717, 210.545 482.161 C 212.704 481.178, 213 480.401, 213 475.724 C 213 470.884, 212.663 470.083, 209.250 466.812 C 207.188 464.835, 204.375 462.882, 203 462.472 C 201.625 462.062, 199.228 460.663, 197.673 459.363 C 193.663 456.010, 184.880 455.979, 181.702 459.306 M 294.297 460.250 C 292.608 462.038, 290.500 464.080, 289.613 464.789 C 287.257 466.672, 287.593 467.810, 291.533 471.298 C 294.573 473.990, 294.975 474.849, 294.415 477.463 C 293.392 482.240, 292.959 482.376, 290.010 478.843 L 287.239 475.523 282.869 476.891 C 277.996 478.417, 272.606 478.682, 269.335 477.556 C 265.246 476.149, 264.190 479.831, 263.827 496.751 L 263.500 512.002 270.750 512.001 L 278 512 278.015 504.250 C 278.035 493.485, 279.168 491.580, 285.774 491.198 L 291 490.895 291 501.448 L 291 512 298.500 512 L 306 512 306.015 505.250 C 306.031 498.426, 307.203 494.631, 308.716 496.508 C 309.156 497.054, 310.800 498.927, 312.370 500.671 C 315.081 503.684, 315.143 503.958, 313.612 506.144 C 310.652 510.370, 311.456 512, 316.500 512 C 320.333 512, 321 511.704, 321 510 C 321 508.334, 321.667 508, 324.992 508 C 327.900 508, 329.322 508.543, 330.232 510 C 331.297 511.705, 332.564 512, 338.834 512 L 346.188 512 345.517 506.750 C 344.884 501.797, 343.155 499.071, 339.737 497.640 C 338.931 497.302, 339.522 496.252, 341.433 494.627 C 345.196 491.427, 345.846 483.515, 342.500 481.631 C 341.400 481.012, 338.925 479.379, 337 478.003 C 332.277 474.626, 323.325 474.434, 319.831 477.635 C 318.549 478.809, 316.446 480.090, 315.159 480.481 C 313.804 480.893, 312.218 482.628, 311.395 484.596 C 309.426 489.308, 307.876 488.839, 305.244 482.733 C 302.473 476.304, 302.424 473.970, 305 471 C 307.644 467.952, 307.528 466.575, 304.256 462.183 C 299.549 455.866, 298.611 455.684, 294.297 460.250 M 234 475.706 C 233.175 476.008, 231.600 477.039, 230.500 477.998 C 229.400 478.957, 227.150 480.366, 225.500 481.130 C 219.997 483.679, 219.429 493.507, 224.647 495.885 L 227.343 497.113 224.138 499.062 C 222.375 500.134, 220.675 501.684, 220.359 502.506 C 219.058 505.897, 217.212 503.854, 216.514 498.250 C 215.573 490.700, 214.706 489.290, 210.238 488.049 C 205.356 486.693, 195.125 486.712, 191.190 488.084 C 187.919 489.224, 186.922 491.023, 186.780 496.045 C 186.669 499.947, 187.590 500.798, 193.588 502.330 C 196.860 503.166, 198.396 504.051, 198.188 504.980 C 198.016 505.747, 197.622 507.641, 197.313 509.187 L 196.750 512 213.808 512 C 229.987 512, 230.898 511.897, 231.500 510 C 232.012 508.388, 233.013 508, 236.661 508 C 240.346 508, 241.284 508.372, 241.710 510 C 242.178 511.788, 243.074 512, 250.166 512 L 258.099 512 257.480 505.750 C 255.524 486.014, 254.333 481, 251.602 481 C 250.872 481, 248.576 479.650, 246.500 478 C 242.821 475.076, 238.095 474.209, 234 475.706 M 234.482 491.030 C 234.093 491.659, 234.242 492.642, 234.814 493.214 C 236.174 494.574, 241.260 493.286, 240.744 491.713 C 240.215 490.103, 235.380 489.575, 234.482 491.030 M 325.736 490.597 C 324.551 491.782, 326.024 493, 328.642 493 C 330.215 493, 331.011 492.529, 330.755 491.750 C 330.294 490.350, 326.788 489.545, 325.736 490.597" stroke="none" fill="#000000" fill-rule="evenodd"/>
</svg>