<svg xmlns="http://www.w3.org/2000/svg" viewBox="0 0 80 80" role="img" aria-label="ATOZIKA">
  <defs>
    <linearGradient id="az-gold" x1="0" y1="0" x2="1" y2="1">
      <stop offset="0%" stop-color="#e6d4a0"/>
      <stop offset="50%" stop-color="#c9a44a"/>
      <stop offset="100%" stop-color="#8f6e24"/>
    </linearGradient>
    <linearGradient id="az-ink" x1="0" y1="0" x2="0" y2="1">
      <stop offset="0%" stop-color="#1c2738"/>
      <stop offset="100%" stop-color="#070b12"/>
    </linearGradient>
  </defs>
  <rect width="80" height="80" rx="18" fill="url(#az-ink)"/>
  <rect x="3.5" y="3.5" width="73" height="73" rx="15" fill="none" stroke="url(#az-gold)" stroke-width="1.5"/>
  <path d="M40 10 L66 22 V42 C66 56 54 66 40 70 C26 66 14 56 14 42 V22 Z" fill="none" stroke="url(#az-gold)" stroke-width="2.2"/>
  <path d="M40 16 L60 25.5 V41.5 C60 52.5 51 61 40 64.5 C29 61 20 52.5 20 41.5 V25.5 Z" fill="#0b1220" stroke="url(#az-gold)" stroke-width="1"/>
  <path d="M28 48 L40 20 L52 48" fill="none" stroke="url(#az-gold)" stroke-width="3.4" stroke-linejoin="miter"/>
  <path d="M32.5 40 H47.5" stroke="url(#az-gold)" stroke-width="3"/>
  <path d="M24 56 H56" stroke="#8b1e2d" stroke-width="2.4"/>
</svg>
